<?xml version="1.0" standalone="no"?>
<!DOCTYPE svg PUBLIC "-//W3C//DTD SVG 20010904//EN"
 "http://www.w3.org/TR/2001/REC-SVG-20010904/DTD/svg10.dtd">
<svg version="1.0" xmlns="http://www.w3.org/2000/svg"
 width="2637.000000pt" height="2637.000000pt" viewBox="0 0 2637.000000 2637.000000"
 preserveAspectRatio="xMidYMid meet">
<metadata>
Created by potrace 1.11, written by Peter Selinger 2001-2013
</metadata>
<g transform="translate(0.000000,2637.000000) scale(0.100000,-0.100000)"
fill="#000000" stroke="none">
<path d="M13009 26366 c-2 -2 -30 -6 -63 -10 -145 -15 -436 -95 -713 -196
-277 -101 -318 -147 -358 -405 -22 -141 -31 -407 -16 -498 19 -119 -18 -228
-125 -364 -173 -220 -222 -334 -229 -533 -5 -153 33 -336 110 -537 177 -456
458 -794 763 -916 70 -29 87 -31 192 -32 105 0 120 2 170 27 30 15 77 45 104
68 26 22 52 37 57 34 5 -3 2 -22 -7 -42 -9 -20 -19 -46 -24 -57 -32 -83 -202
-342 -381 -582 l-135 -183 -44 138 c-64 203 -100 275 -200 395 -36 45 -156
118 -234 143 -115 37 -277 38 -388 2 -217 -71 -384 -233 -434 -421 -17 -66
-11 -193 14 -277 21 -72 19 -90 -8 -90 -32 0 -232 107 -312 167 -284 215 -662
634 -771 855 -58 117 -52 185 27 308 72 112 77 120 101 185 34 90 30 205 -10
290 -71 151 -261 344 -413 419 -217 109 -461 53 -671 -154 -112 -111 -151
-207 -151 -374 0 -148 45 -285 135 -411 84 -119 180 -183 289 -196 116 -14
165 -86 196 -287 23 -149 17 -508 -11 -627 -40 -171 -102 -184 -243 -51 -137
130 -240 170 -436 170 -110 -1 -135 -4 -209 -29 -175 -59 -284 -161 -379 -350
-46 -92 -58 -134 -65 -227 -8 -95 -19 -112 -70 -105 -48 7 -211 85 -256 123
-52 44 -47 68 58 254 120 213 124 259 35 363 -43 52 -71 133 -85 247 -17 149
-78 318 -200 563 -121 242 -263 437 -319 437 -31 0 -86 38 -100 69 -6 14 -16
63 -21 109 -10 92 -23 124 -64 162 -23 22 -35 25 -98 24 -62 0 -83 -6 -152
-38 -44 -21 -95 -38 -113 -38 -48 0 -88 43 -153 160 -117 214 -211 337 -290
376 -37 18 -105 21 -146 5 -15 -5 -59 -34 -98 -63 -85 -65 -126 -86 -231 -119
-87 -28 -184 -43 -334 -52 -279 -17 -380 -50 -469 -151 -49 -56 -76 -103 -128
-225 -50 -117 -73 -215 -73 -315 0 -271 168 -481 440 -550 84 -21 257 -24 293
-5 34 18 40 38 38 125 -2 89 19 152 70 209 93 106 231 128 297 47 15 -18 94
-156 151 -262 22 -43 58 -111 80 -151 21 -40 98 -189 171 -332 314 -617 391
-757 527 -965 129 -196 220 -306 444 -536 288 -296 377 -415 399 -534 15 -85
64 -170 152 -266 44 -48 89 -106 99 -129 25 -56 31 -140 15 -228 -22 -131 -4
-250 43 -284 41 -28 57 -201 36 -408 -14 -145 -12 -352 4 -398 28 -80 83 -120
236 -170 142 -47 450 -119 730 -171 150 -29 427 -73 750 -121 26 -3 107 -14
247 -31 24 -3 75 -9 113 -14 39 -5 97 -12 130 -15 33 -3 74 -8 90 -10 17 -3
53 -7 80 -10 28 -3 68 -7 90 -10 22 -2 60 -7 85 -10 25 -2 124 -14 220 -25 96
-11 193 -22 215 -24 22 -3 85 -11 140 -18 159 -21 1975 -16 2635 7 52 2 187 6
300 9 113 4 243 9 290 11 47 2 148 7 225 10 77 4 172 8 210 10 39 2 122 6 185
10 63 3 140 7 170 10 30 2 93 7 140 10 152 9 459 33 525 40 22 2 72 7 110 10
71 6 493 52 549 60 17 2 101 14 186 25 590 80 1075 198 1357 330 118 56 180
95 246 159 72 68 101 131 101 212 0 83 -28 144 -115 249 -103 126 -108 159
-39 258 55 78 75 163 64 262 -5 41 -9 111 -9 155 0 96 18 132 119 240 85 90
134 182 152 286 7 43 22 96 33 116 52 103 211 277 421 463 143 127 310 300
420 436 214 265 327 481 345 656 8 80 39 198 66 249 11 22 55 92 97 157 43 64
140 224 217 355 202 344 254 402 342 378 56 -15 117 -58 147 -105 25 -38 27
-46 21 -112 -6 -68 -5 -73 20 -98 59 -59 165 -88 300 -81 342 16 501 198 491
560 -2 89 -9 138 -26 190 -78 246 -258 416 -505 480 -55 15 -115 19 -275 21
-148 2 -226 7 -280 19 -165 37 -227 27 -413 -66 -160 -81 -344 -222 -362 -278
-13 -41 -113 -66 -300 -75 -162 -8 -238 -40 -342 -146 -69 -69 -204 -254 -256
-351 -96 -179 -185 -459 -241 -759 -35 -189 -37 -205 -42 -395 -5 -200 4 -247
65 -338 52 -77 53 -106 4 -147 -99 -81 -148 -48 -223 150 -59 154 -92 218
-145 285 -227 284 -612 340 -842 122 -67 -63 -105 -127 -174 -290 l-54 -128
-17 38 c-88 190 -124 297 -142 418 -34 245 -33 501 3 615 31 99 73 155 242
327 217 220 280 332 281 497 0 138 -58 252 -207 401 -163 164 -251 194 -470
159 -166 -26 -323 -92 -396 -165 -97 -97 -141 -310 -103 -498 21 -99 45 -159
108 -261 66 -106 80 -148 73 -213 -27 -227 -525 -774 -909 -998 -69 -40 -166
-79 -199 -79 -26 0 -39 50 -49 180 -12 163 -51 257 -148 358 -108 112 -271
182 -422 182 -208 -1 -433 -123 -558 -303 -50 -72 -70 -131 -76 -222 -2 -38
-5 -76 -5 -83 -4 -64 -234 153 -392 371 -84 115 -219 343 -219 369 0 25 17 23
102 -11 187 -74 351 -110 474 -105 83 4 112 22 130 82 16 56 79 137 162 208
106 91 169 162 237 264 235 352 368 890 291 1175 -21 79 -43 118 -101 179 -69
72 -101 127 -114 198 -17 94 -40 128 -116 166 -22 11 -48 29 -59 41 -26 29
-17 82 35 206 37 87 43 110 43 175 1 74 -1 79 -62 200 -40 81 -68 150 -77 195
-16 82 -42 110 -163 177 -142 78 -669 237 -902 271 -82 12 -381 22 -391 13z
m252 -247 c49 -52 99 -165 99 -222 0 -61 -36 -129 -82 -153 -41 -21 -108 -20
-154 4 -95 48 -100 98 -28 240 47 93 100 162 124 162 6 0 25 -14 41 -31z
m-361 -61 c30 -19 41 -61 24 -87 -16 -22 -99 -51 -148 -51 -86 0 -139 38 -114
80 15 24 65 58 106 71 34 10 105 4 132 -13z m805 -49 c37 -38 36 -62 -5 -76
-68 -23 -150 -12 -164 23 -27 71 110 114 169 53z m235 -215 c-249 -251 -266
-269 -356 -354 -93 -90 -171 -149 -204 -155 -43 -8 -55 89 -20 161 33 68 97
117 248 193 159 79 286 156 387 235 39 30 72 55 75 55 3 1 -56 -60 -130 -135z
m-1485 26 c135 -61 429 -212 481 -248 75 -50 128 -108 145 -158 15 -44 16
-234 1 -273 -9 -24 -11 -22 -98 60 -82 78 -277 273 -577 577 l-122 124 60 -30
c33 -16 83 -40 110 -52z m-195 -226 c282 -258 567 -608 704 -867 65 -121 66
-189 3 -227 -43 -27 -64 -25 -97 8 -34 35 -46 78 -54 195 -12 176 -57 228
-341 387 -257 144 -300 204 -330 458 -21 178 -22 172 18 135 17 -16 61 -57 97
-89z m1953 -25 c10 -15 21 -47 24 -72 12 -108 -92 -233 -357 -430 -252 -187
-281 -211 -314 -257 -27 -39 -31 -53 -30 -105 0 -33 4 -87 9 -121 9 -70 -3
-89 -60 -100 -65 -12 -117 17 -131 73 -10 40 22 156 68 243 101 190 249 373
501 619 93 90 179 163 207 174 29 12 63 2 83 -24z m107 -717 c34 -25 77 -108
83 -159 5 -53 -11 -79 -61 -93 -45 -14 -542 -26 -541 -14 1 9 57 55 197 161
69 53 146 96 222 126 23 9 72 -1 100 -21z m-2058 -17 c29 -15 81 -47 114 -71
76 -55 206 -173 199 -183 -2 -4 -41 -2 -87 5 -46 6 -123 17 -173 24 -127 17
-146 20 -185 30 -45 12 -100 46 -101 62 -5 57 28 130 69 153 37 21 100 14 164
-20z m36 -405 c165 -33 458 -115 467 -130 7 -11 -32 -32 -112 -61 -108 -41
-178 -98 -189 -155 -12 -67 41 -87 167 -59 43 9 83 14 89 10 21 -13 8 -52 -67
-198 -79 -152 -140 -236 -161 -223 -18 11 -32 75 -32 146 0 74 -21 164 -51
226 -12 22 -56 76 -98 120 -89 91 -172 206 -197 270 -30 79 8 90 184 54z
m1997 -62 c-17 -18 -64 -69 -106 -113 -99 -104 -127 -137 -176 -210 -93 -138
-124 -227 -149 -420 l-6 -50 -29 60 c-103 216 -159 356 -159 400 0 30 3 35 24
35 13 0 43 -7 66 -15 64 -23 95 -19 120 13 49 61 -3 158 -91 169 -129 17 -132
87 -6 127 81 25 157 33 357 35 l184 2 -29 -33z m-2402 -128 c61 -53 104 -197
66 -221 -32 -21 -60 -20 -106 2 -66 34 -88 67 -88 138 0 107 57 144 128 81z
m2755 7 c6 -5 12 -25 12 -43 0 -37 -21 -63 -67 -88 -15 -8 -39 -26 -53 -41
-22 -23 -25 -35 -24 -98 0 -40 2 -93 4 -118 3 -29 -1 -53 -9 -63 -17 -20 -73
-36 -128 -36 -107 0 -128 -38 -108 -195 21 -160 -2 -215 -81 -200 -52 9 -66
45 -63 164 1 54 5 124 10 157 26 171 253 479 411 558 47 24 68 24 96 3z
m-1385 -211 c47 -20 103 -80 170 -181 85 -130 318 -601 352 -715 l8 -24 -29
18 c-86 55 -231 253 -260 354 -15 51 -19 55 -71 79 -43 20 -76 26 -156 30
-217 11 -309 -32 -387 -182 -56 -107 -170 -219 -202 -199 -37 23 49 235 207
509 157 272 259 358 368 311z m-3660 -61 c155 -74 206 -295 98 -433 -32 -40
-129 -89 -194 -98 -49 -6 -130 9 -174 31 -143 74 -170 285 -53 418 82 94 223
130 323 82z m7393 -5 c130 -49 194 -186 149 -320 -52 -155 -267 -249 -410
-180 -54 26 -77 57 -99 129 -30 103 -17 210 36 282 61 82 223 127 324 89z
m-4845 -37 c65 -59 119 -244 119 -407 1 -95 -20 -158 -52 -164 -34 -6 -86 29
-108 72 -26 55 -25 114 4 212 34 113 24 125 -77 94 -34 -11 -76 -20 -93 -20
-43 0 -84 34 -84 69 0 62 99 162 176 179 44 10 76 0 115 -35z m8722 31 c117
-30 266 -112 267 -146 0 -11 -25 -30 -71 -54 -70 -37 -154 -110 -214 -187 -56
-71 -95 -39 -150 126 -46 139 -37 229 25 259 40 19 75 20 143 2z m-15206 -37
c32 -31 41 -83 30 -166 -10 -75 -38 -150 -73 -197 -20 -26 -34 -34 -58 -34
-45 0 -72 23 -106 90 -48 94 -92 128 -192 145 -57 9 -51 25 32 82 157 106 308
139 367 80z m14724 -66 c42 -43 40 -86 -8 -140 -35 -39 -40 -41 -58 -28 -15
12 -20 30 -23 85 -4 61 -1 73 17 91 28 28 37 27 72 -8z m-14283 -8 c48 -71 91
-221 83 -290 -3 -28 -46 -11 -91 35 -82 85 -111 186 -71 250 25 39 53 41 79 5z
m13962 -78 c18 -22 15 -84 -8 -199 -23 -110 -38 -134 -70 -117 -89 48 -119
196 -54 272 43 51 108 73 132 44z m-13276 -191 c10 -10 16 -33 16 -64 0 -52
-40 -192 -63 -224 -14 -19 -15 -19 -26 2 -32 60 -20 238 20 281 24 25 32 26
53 5z m12501 -88 c19 -19 22 -31 19 -62 -6 -50 -56 -153 -89 -184 -22 -21 -28
-22 -49 -11 -31 17 -53 67 -49 111 4 51 44 122 83 148 42 28 55 28 85 -2z
m-14114 -28 c140 -100 201 -242 115 -264 -30 -7 -86 24 -115 64 -25 36 -71
166 -71 203 0 38 16 37 71 -3z m16055 -3 c7 -49 -42 -180 -86 -226 -23 -25
-60 -41 -77 -35 -37 15 19 172 88 251 35 39 70 44 75 10z m-14003 -147 c30
-23 45 -79 41 -148 -5 -76 19 -130 58 -130 56 0 72 -59 43 -169 -25 -99 -5
-150 60 -151 39 0 95 -17 118 -34 26 -20 29 -70 5 -101 -58 -74 -219 27 -289
180 -112 248 -155 565 -76 565 13 0 31 -6 40 -12z m12484 -132 c9 -51 9 -53 0
-93 -7 -33 -29 -44 -43 -21 -9 15 -9 152 1 167 12 20 35 -8 42 -53z m-585 -93
c38 -34 17 -141 -62 -311 -54 -114 -106 -198 -158 -254 -50 -54 -79 -61 -113
-27 -41 41 1 133 100 219 57 50 83 95 74 131 -3 13 -23 49 -45 79 -65 95 -48
128 92 174 34 11 94 5 112 -11z m-12213 -77 c21 -85 0 -187 -47 -230 -47 -42
-53 23 -16 185 28 125 41 134 63 45z m12562 -3 c19 -48 14 -196 -7 -239 -41
-82 -88 -66 -87 29 0 71 56 237 79 237 3 0 9 -12 15 -27z m-6221 -270 c72
-168 229 -483 288 -577 35 -55 61 -106 60 -115 -7 -37 -69 -44 -451 -49 l-369
-4 100 193 c55 107 150 294 213 416 62 122 116 220 120 218 3 -3 21 -39 39
-82z m-6150 -171 c55 -59 103 -152 104 -201 1 -32 -2 -36 -27 -39 -42 -5 -207
80 -251 129 -46 50 -48 93 -8 132 61 59 114 53 182 -21z m4680 -62 c56 -29
121 -95 149 -153 46 -95 22 -180 -78 -269 -207 -186 -533 -6 -461 254 16 56
72 130 121 161 80 49 181 52 269 7z m3052 2 c143 -63 213 -254 144 -390 -28
-56 -55 -82 -116 -114 -37 -19 -60 -23 -130 -23 -75 0 -91 3 -131 27 -89 52
-131 124 -132 228 -1 77 23 137 78 199 87 96 181 120 287 73z m4578 -2 c121
-62 81 -132 -141 -245 -202 -103 -277 -171 -345 -314 -27 -56 -48 -90 -54 -85
-18 18 -60 188 -60 243 0 70 15 99 62 125 59 33 148 101 208 158 132 126 240
164 330 118z m-2804 -207 c51 -165 134 -488 150 -576 l6 -38 -85 2 c-143 3
-419 49 -661 110 -191 49 -185 75 59 260 234 177 420 347 445 410 8 19 16 27
23 20 5 -5 34 -90 63 -188z m-6702 150 c35 -23 200 -156 216 -173 3 -3 46 -41
95 -85 50 -44 102 -91 116 -105 59 -57 233 -216 247 -226 20 -14 56 -6 -503
-113 -321 -61 -339 -64 -365 -56 -29 9 -26 50 15 170 42 123 73 256 80 351 3
38 8 98 11 133 5 63 26 131 40 131 5 0 26 -12 48 -27z m-2286 -265 c4 -48 -29
-127 -95 -226 -83 -125 -113 -133 -248 -59 -273 148 -232 270 70 212 153 -29
225 -12 225 53 0 31 18 64 33 59 7 -2 13 -19 15 -39z m11840 -128 c52 -48 14
-101 -77 -108 -58 -4 -92 11 -91 41 1 34 77 86 126 87 11 0 30 -9 42 -20z
m-1663 -30 c143 -67 211 -258 138 -391 -89 -164 -332 -187 -451 -43 -85 103
-75 254 23 363 88 97 184 121 290 71z m-8925 -26 c57 -31 112 -105 130 -174
35 -133 -45 -291 -182 -361 -143 -73 -302 18 -343 196 -58 247 183 454 395
339z m5590 -338 c47 -3 128 -8 180 -11 98 -5 194 -12 290 -20 30 -2 89 -7 130
-10 152 -12 673 -79 860 -110 14 -2 57 -9 95 -15 866 -135 1685 -349 2068
-541 141 -71 221 -130 263 -193 33 -51 14 -186 -26 -186 -10 0 -67 24 -127 54
-451 225 -973 397 -1548 510 -376 74 -581 105 -1070 161 -92 11 -339 35 -455
45 -295 26 -340 29 -460 35 -58 3 -123 8 -145 10 -259 26 -1959 27 -2305 0
-25 -2 -110 -6 -190 -10 -80 -3 -170 -8 -200 -10 -30 -2 -98 -6 -150 -10 -52
-3 -120 -8 -150 -10 -30 -2 -93 -7 -140 -10 -47 -4 -96 -8 -110 -10 -14 -2
-63 -6 -110 -10 -90 -6 -295 -29 -515 -56 -125 -16 -531 -85 -725 -123 -528
-105 -1078 -248 -1289 -336 -91 -37 -235 -132 -356 -234 -95 -80 -173 -126
-213 -126 -13 0 -36 13 -52 28 -37 37 -50 123 -26 169 87 169 840 501 1489
657 373 90 886 174 1407 231 80 9 161 18 180 20 19 2 114 11 210 20 96 8 195
17 220 20 25 2 86 7 135 11 50 3 106 7 125 9 19 2 82 6 140 9 58 4 125 9 150
11 25 2 113 7 195 10 83 4 164 8 180 10 17 2 138 6 270 10 132 4 242 9 244 11
7 6 1436 -3 1531 -10z m-6931 -298 c229 -132 468 -305 448 -325 -24 -23 -434
229 -547 336 -59 56 -62 62 -35 56 16 -4 77 -34 134 -67z m5788 -492 c57 -29
327 -204 331 -215 1 -4 -77 -63 -173 -132 -97 -68 -199 -141 -227 -161 l-50
-37 -71 57 c-40 31 -78 62 -87 69 -8 6 -55 44 -105 85 -49 40 -107 86 -127
101 -21 15 -38 31 -38 35 0 10 309 190 367 213 59 23 114 19 180 -15z m1328
-55 c107 -49 148 -172 99 -295 -34 -87 -97 -135 -186 -143 -48 -5 -66 -2 -110
20 -98 48 -150 116 -150 196 1 55 14 94 48 138 27 35 97 88 129 96 47 12 132
6 170 -12z m-2668 -56 c77 -32 102 -76 107 -187 7 -141 -41 -215 -152 -236
-177 -34 -278 52 -274 235 2 100 66 183 154 203 47 10 121 3 165 -15z m4014
-35 c182 -33 317 -110 360 -204 31 -68 20 -136 -37 -218 -129 -185 -429 -187
-671 -4 -315 238 -95 506 348 426z m-5321 -36 c119 -16 221 -83 241 -156 12
-46 0 -117 -30 -176 -70 -135 -290 -221 -494 -193 -142 20 -266 91 -311 179
-58 112 -12 219 122 286 121 61 304 84 472 60z m6501 -271 c73 -66 96 -92 120
-137 19 -35 20 -44 9 -79 -14 -48 -151 -190 -193 -201 -37 -9 -79 15 -144 80
-124 124 -123 185 3 305 102 97 128 101 205 32z m-7724 -54 c89 -33 131 -143
89 -231 -62 -130 -312 -161 -380 -48 -39 67 -12 169 61 229 65 54 164 75 230
50z m-939 -354 c71 -33 73 -60 12 -141 -80 -107 -184 -138 -241 -73 -48 56
-45 130 9 185 58 58 135 69 220 29z m9489 -36 c37 -14 79 -54 93 -90 10 -24
10 -33 -3 -53 -39 -59 -126 -49 -164 19 -28 50 -29 89 -3 115 23 23 37 24 77
9z m-3867 -203 c36 -2 146 -7 245 -10 99 -4 200 -8 225 -11 25 -2 104 -7 175
-10 72 -3 150 -8 175 -10 25 -2 88 -7 140 -10 52 -3 115 -8 140 -10 25 -2 86
-7 135 -10 50 -3 106 -8 125 -10 19 -2 62 -7 95 -10 145 -12 392 -36 415 -40
14 -2 70 -9 125 -15 614 -69 1204 -176 1547 -281 153 -47 210 -69 303 -116
148 -75 155 -92 63 -150 -164 -102 -250 -109 -337 -26 -56 53 -209 110 -496
183 -358 91 -759 160 -1080 185 -44 4 -96 8 -115 10 -19 2 -89 7 -155 10 -66
3 -154 8 -195 10 -534 28 -3648 28 -4155 0 -33 -2 -152 -6 -265 -9 -113 -4
-230 -9 -260 -11 -30 -2 -113 -7 -185 -10 -71 -3 -159 -8 -195 -10 -36 -2
-103 -7 -150 -10 -178 -11 -279 -19 -440 -35 -52 -5 -124 -12 -160 -15 -36 -4
-76 -8 -90 -10 -14 -2 -68 -9 -120 -15 -114 -14 -326 -47 -384 -60 -22 -5 -57
-12 -76 -15 -70 -12 -227 -57 -300 -87 -81 -34 -122 -58 -157 -95 -23 -24 -26
-34 -38 -108 -17 -102 -90 -100 -244 5 -77 53 -131 103 -131 122 0 56 213 180
435 252 186 60 599 156 785 181 25 3 52 8 60 10 8 2 31 6 50 9 19 3 127 19
240 35 179 26 545 70 710 86 95 8 173 16 220 20 42 4 230 20 360 30 103 8 195
14 290 20 52 3 120 8 150 10 30 3 123 7 205 11 83 3 175 7 205 9 30 2 174 7
320 11 146 3 267 8 269 10 6 5 1441 -4 1521 -10z m595 -550 c171 -4 357 -9
415 -11 58 -2 179 -7 270 -10 91 -3 206 -8 255 -10 85 -5 130 -7 328 -20 197
-13 446 -43 705 -85 34 -5 92 -15 130 -21 381 -61 598 -118 615 -163 13 -33
-74 -67 -284 -110 -110 -22 -153 -30 -274 -50 -203 -34 -633 -91 -755 -101
-41 -3 -91 -8 -110 -10 -19 -3 -71 -7 -115 -10 -44 -3 -105 -8 -135 -10 -187
-14 -214 -16 -450 -30 -129 -8 -270 -15 -415 -20 -77 -3 -174 -8 -215 -10 -41
-2 -183 -7 -315 -11 -132 -3 -285 -7 -340 -9 -735 -24 -2456 -24 -2685 -1 -19
2 -80 7 -135 11 -176 11 -577 54 -935 100 -353 45 -492 63 -610 80 -52 8 -117
17 -145 20 -89 12 -318 55 -399 76 -122 31 -160 58 -123 86 55 43 329 100 807
168 277 40 335 47 550 65 167 14 237 19 350 25 52 3 133 7 180 10 47 3 144 7
215 10 72 3 166 8 210 10 44 2 184 7 310 11 127 3 266 8 310 9 44 2 280 6 525
10 245 4 446 8 447 9 6 5 1554 -2 1818 -8z"/>
<path d="M6136 16778 c-10 -57 -35 -195 -56 -308 -74 -395 -130 -717 -164
-935 -33 -212 -39 -255 -52 -347 -3 -24 -7 -54 -9 -68 -8 -47 -44 -355 -55
-465 -12 -121 -16 -165 -26 -300 -3 -49 -8 -106 -9 -125 -2 -19 -7 -98 -10
-175 -4 -77 -8 -153 -10 -170 -26 -229 -26 -2231 -1 -2490 3 -22 7 -89 11
-150 20 -353 80 -741 191 -1235 300 -1333 875 -2869 1554 -4150 302 -569 594
-1045 975 -1589 275 -391 789 -1035 1116 -1396 15 -16 37 -41 49 -55 31 -35
191 -209 290 -314 98 -104 531 -537 611 -611 315 -291 421 -385 624 -555 88
-73 171 -142 185 -154 221 -187 731 -554 1035 -744 296 -184 762 -442 800
-442 45 0 586 337 945 589 373 261 926 702 1255 1001 130 119 186 170 239 220
425 397 924 910 1252 1285 33 39 94 108 135 155 41 47 110 128 154 180 44 52
82 97 86 100 19 16 361 449 468 594 320 431 686 997 931 1441 217 394 457 862
580 1130 374 819 649 1552 874 2326 41 141 168 628 180 689 3 14 21 99 41 190
69 315 162 866 190 1120 3 30 8 66 10 80 2 14 7 48 10 75 3 28 7 68 10 90 6
52 12 115 20 195 11 118 13 144 20 230 4 47 9 101 10 120 2 19 7 89 10 155 4
66 8 130 10 142 26 168 26 1658 0 1958 -2 22 -6 99 -9 170 -4 72 -9 148 -11
170 -2 22 -7 78 -10 125 -13 179 -15 200 -30 360 -17 176 -28 286 -45 430 -11
91 -22 185 -25 210 -3 25 -7 61 -10 80 -4 36 -42 310 -50 365 -8 55 -65 420
-69 445 -11 57 -76 449 -76 454 0 3 -3178 6 -7063 6 l-7062 0 -19 -102z
m13589 -400 c2 -13 32 -169 65 -348 33 -179 65 -345 70 -370 5 -25 12 -58 14
-75 3 -16 14 -84 25 -150 21 -120 24 -143 35 -245 4 -30 9 -66 11 -80 2 -14 7
-59 10 -100 3 -41 8 -86 10 -100 2 -14 7 -77 10 -140 3 -63 8 -135 10 -160 4
-44 13 -259 20 -515 5 -163 5 -1971 0 -2120 -11 -366 -18 -500 -30 -640 -2
-27 -7 -81 -10 -120 -26 -295 -131 -831 -271 -1375 -474 -1845 -1233 -3544
-2245 -5022 -184 -268 -194 -282 -374 -523 -212 -284 -374 -488 -591 -745
-423 -501 -1016 -1104 -1509 -1535 -38 -33 -73 -64 -79 -70 -34 -31 -230 -197
-352 -296 -460 -377 -1024 -783 -1240 -893 -80 -40 -99 -40 -192 1 -365 161
-1422 953 -2087 1564 -27 25 -84 77 -125 115 -41 38 -192 186 -335 329 -288
287 -373 376 -590 620 -115 129 -131 147 -298 345 -538 636 -1116 1481 -1573
2304 -384 688 -792 1594 -1027 2276 -280 812 -441 1396 -591 2140 -34 167 -41
209 -86 465 -31 180 -63 406 -80 575 -17 164 -19 189 -25 285 -3 50 -8 110
-10 135 -26 274 -26 1276 0 1610 1 25 6 97 10 160 3 63 8 131 10 150 1 19 6
71 9 115 22 260 63 623 101 889 65 442 119 717 264 1346 23 96 43 185 46 198
l5 22 6495 0 6495 0 5 -22z"/>
<path d="M8809 16041 c-55 -30 -102 -90 -159 -200 -50 -98 -95 -151 -127 -151
-32 0 -83 52 -133 134 -53 88 -99 136 -130 136 -41 0 -68 -20 -88 -64 -21 -43
-25 -71 -36 -214 -10 -122 -40 -185 -95 -197 -42 -9 -81 14 -157 95 -73 77
-134 110 -163 88 -44 -35 -59 -87 -62 -221 -4 -213 -29 -240 -214 -246 -105
-2 -151 -15 -166 -43 -14 -25 -13 -93 0 -162 19 -91 21 -110 22 -172 2 -82 -6
-100 -41 -108 -49 -9 -159 -66 -196 -101 -45 -43 -44 -70 10 -143 58 -79 76
-114 76 -152 0 -79 -62 -127 -215 -165 -112 -27 -129 -38 -120 -74 7 -26 64
-111 126 -188 106 -129 161 -205 153 -212 -5 -4 -53 -36 -107 -70 -117 -74
-160 -111 -182 -158 -38 -80 -9 -162 88 -250 30 -26 62 -60 72 -75 16 -26 16
-30 1 -52 -9 -14 -47 -51 -85 -83 -38 -32 -76 -71 -84 -88 -14 -26 -14 -32 1
-59 9 -16 80 -83 157 -149 77 -66 141 -123 142 -126 1 -3 -71 -45 -160 -92
-89 -47 -162 -90 -162 -96 0 -5 44 -57 98 -114 143 -152 187 -225 187 -311 0
-69 -72 -118 -175 -118 -58 0 -81 -9 -93 -33 -20 -46 36 -116 220 -275 119
-103 158 -145 158 -171 0 -27 -29 -59 -106 -120 -84 -65 -108 -95 -100 -124 9
-32 19 -43 138 -145 131 -113 151 -137 138 -163 -6 -10 -43 -34 -84 -52 -91
-43 -128 -86 -128 -151 0 -67 35 -126 137 -233 49 -52 98 -109 107 -126 53
-99 -16 -161 -186 -166 -127 -4 -152 -39 -122 -170 31 -136 16 -225 -42 -255
-40 -20 -55 -42 -47 -65 3 -12 40 -53 81 -93 87 -85 130 -162 144 -259 7 -46
15 -69 31 -81 26 -22 45 -22 120 -3 99 26 154 5 196 -76 30 -58 73 -95 124
-109 84 -23 163 10 207 87 15 26 45 66 67 89 33 34 50 44 88 49 95 14 177 102
288 308 l64 118 5 -68 c16 -195 -9 -323 -79 -399 -49 -53 -57 -89 -36 -178 19
-82 14 -133 -20 -211 -31 -70 -52 -194 -59 -347 -7 -181 -21 -198 -172 -209
-152 -11 -171 -28 -185 -160 -13 -129 -59 -209 -142 -245 -96 -41 -98 -65 -17
-162 105 -124 133 -204 110 -312 -7 -32 -10 -70 -6 -83 7 -29 44 -47 100 -47
71 0 143 -27 187 -71 21 -21 39 -45 39 -53 0 -17 63 -74 97 -87 14 -5 60 -12
102 -14 91 -7 208 -30 274 -56 100 -39 128 -18 138 103 11 121 51 163 183 192
93 21 143 62 186 150 16 35 59 175 94 312 36 137 74 278 85 314 39 124 125
340 132 333 16 -16 27 -163 27 -363 0 -306 -19 -413 -85 -473 -115 -106 -113
-103 -113 -145 0 -22 20 -100 44 -174 74 -221 73 -233 -31 -334 -83 -81 -117
-145 -126 -237 -9 -97 -38 -114 -160 -93 -99 18 -143 6 -152 -41 -21 -103 -60
-157 -156 -219 -37 -24 -73 -53 -79 -65 -18 -34 -5 -83 44 -167 91 -155 95
-196 26 -251 -66 -53 -54 -82 76 -184 47 -38 80 -73 98 -108 30 -54 29 -47 10
-184 -9 -62 12 -75 138 -85 168 -14 246 -54 321 -168 26 -39 54 -72 63 -72 8
0 28 30 48 73 52 114 103 151 234 167 89 11 119 29 137 82 13 39 79 136 141
208 22 24 79 89 128 144 109 122 225 268 290 364 27 39 51 70 54 67 2 -2 -4
-37 -13 -77 -21 -83 -23 -184 -5 -219 7 -13 34 -44 61 -69 62 -58 72 -95 35
-127 -32 -27 -64 -29 -152 -7 -121 31 -170 -5 -236 -170 -46 -115 -120 -258
-138 -266 -176 -83 -240 -126 -240 -165 0 -16 19 -40 61 -77 190 -165 188
-157 79 -293 -48 -60 -76 -137 -66 -188 9 -49 55 -87 106 -87 47 0 86 -31 99
-77 5 -17 8 -62 6 -100 -5 -137 28 -181 156 -208 102 -21 159 -52 184 -97 11
-20 34 -43 52 -52 31 -15 52 -18 196 -31 103 -9 125 -34 101 -115 -8 -28 -14
-63 -12 -78 3 -24 8 -27 48 -30 54 -4 117 14 319 90 85 32 158 58 162 58 20 0
6 -27 -49 -99 -103 -133 -104 -140 -22 -221 44 -43 60 -67 61 -87 0 -15 2 -36
4 -47 2 -10 -5 -53 -16 -95 -23 -88 -19 -135 14 -153 12 -6 72 -15 134 -19
175 -12 203 -35 210 -177 9 -171 35 -173 274 -21 128 81 177 105 191 91 6 -6
12 -36 15 -68 3 -34 13 -70 24 -85 21 -30 85 -59 130 -59 112 0 193 -63 228
-178 22 -74 51 -119 85 -132 37 -14 88 17 173 106 83 86 128 114 182 114 71 0
110 -30 211 -166 74 -100 119 -134 173 -134 45 0 88 35 135 110 85 134 100
137 292 46 134 -63 201 -83 239 -71 13 4 29 30 46 75 33 86 88 172 125 194 46
27 74 20 142 -35 100 -80 151 -99 213 -79 52 17 74 56 85 151 10 91 33 138 71
151 39 13 73 -5 116 -61 43 -55 97 -91 139 -91 44 0 113 39 139 79 13 20 33
61 44 92 35 93 115 149 214 149 52 0 118 32 138 67 9 16 19 49 22 75 9 69 48
138 113 202 31 31 61 56 65 56 4 0 17 16 29 35 20 33 20 36 5 69 -19 39 -45
64 -248 239 -81 70 -146 127 -144 127 2 0 61 -25 133 -56 138 -60 235 -94 266
-94 33 0 57 19 79 61 38 75 103 83 359 44 143 -22 181 -17 203 28 9 17 18 65
20 105 7 113 36 130 180 101 99 -20 125 -1 138 104 9 77 48 154 106 208 141
133 146 145 91 219 -18 24 -39 51 -46 61 -18 23 -18 81 -1 122 7 18 39 75 70
127 31 53 60 106 64 119 13 42 -12 75 -93 124 -118 70 -192 158 -192 227 0 52
-71 147 -158 210 -64 47 -112 109 -138 180 -16 42 -32 295 -23 344 3 13 27
-10 94 -90 173 -208 234 -295 315 -453 45 -87 62 -110 92 -126 32 -17 43 -18
89 -8 32 6 65 7 83 2 45 -13 97 -66 145 -147 65 -111 88 -115 186 -32 89 76
155 105 235 104 36 -1 88 -4 116 -9 47 -7 53 -5 68 16 9 13 16 37 16 54 0 65
64 168 177 284 94 96 115 170 93 319 -18 121 -3 182 56 226 24 17 50 46 59 64
15 29 15 35 -1 67 -17 36 -59 61 -169 100 -92 34 -114 80 -80 175 21 58 19 97
-3 102 -25 7 -101 -14 -247 -67 -125 -45 -159 -52 -169 -36 -3 4 13 46 35 92
55 112 60 132 42 158 -10 16 -25 21 -56 21 -103 0 -151 37 -181 140 -21 70
-43 240 -52 400 -3 69 -8 141 -9 160 -3 39 -16 352 -19 473 -2 43 0 95 4 115
l6 37 13 -60 c51 -248 101 -398 157 -470 64 -84 88 -148 103 -269 6 -48 16
-85 25 -95 18 -17 61 -19 182 -6 69 7 73 7 88 -17 18 -27 24 -56 25 -111 1
-49 41 -91 102 -107 56 -16 248 -16 320 -1 81 17 140 51 173 100 40 60 81 78
147 63 105 -25 128 -9 141 95 10 86 47 160 108 219 57 54 79 102 87 188 10
110 -29 228 -98 297 -36 36 -48 41 -138 55 -63 9 -110 55 -122 118 -14 74 -62
116 -133 116 -19 0 -46 4 -60 10 -31 11 -28 25 24 95 75 102 81 140 32 236
-38 75 -59 167 -76 334 -15 149 -20 535 -7 555 7 11 25 -17 70 -114 34 -70 61
-130 61 -132 0 -17 91 -147 126 -181 74 -71 145 -75 230 -13 24 17 62 38 86
46 49 18 146 20 198 4 106 -31 162 -1 206 111 34 88 96 155 151 165 50 8 79
28 98 63 57 111 45 363 -24 516 -28 60 -59 97 -139 167 -60 52 -55 71 32 125
98 60 156 141 159 218 2 73 -41 115 -119 115 -19 0 -50 7 -69 14 -74 31 -37
109 122 252 166 149 167 156 61 241 -106 84 -150 130 -146 149 2 10 40 49 85
88 93 80 121 113 138 162 27 79 -15 134 -103 134 -23 0 -58 7 -77 14 -29 13
-35 20 -35 46 0 54 38 108 156 224 148 148 150 160 27 252 -41 31 -79 67 -85
80 -15 33 -2 56 93 159 42 46 79 96 81 110 7 33 -21 88 -73 145 -23 25 -54 64
-69 88 -37 57 -28 85 51 153 115 101 115 122 -2 259 -101 120 -114 143 -99
179 6 14 44 52 84 83 91 72 127 122 134 188 7 71 -21 109 -115 155 -99 48 -99
66 7 186 124 141 128 163 40 272 -108 135 -134 222 -105 361 28 137 5 178
-124 221 -137 45 -151 79 -115 285 36 212 27 218 -220 170 -223 -44 -232 -34
-186 205 33 170 34 192 16 220 -21 31 -48 32 -204 4 -133 -24 -228 -22 -247 4
-7 10 -15 37 -18 62 -4 25 -16 63 -28 86 -27 54 -93 125 -128 137 -38 13 -89
-6 -147 -54 -158 -133 -170 -133 -368 -10 -136 86 -159 96 -204 96 -39 0 -92
-30 -152 -87 -44 -42 -104 -80 -144 -92 -50 -13 -101 -2 -197 44 -128 61 -159
48 -235 -100 -61 -119 -92 -163 -126 -181 -35 -18 -108 -20 -166 -5 -23 7 -63
12 -89 13 -80 1 -89 -24 -98 -273 -2 -70 -7 -140 -11 -155 -17 -72 -68 -104
-162 -104 -94 0 -151 -59 -137 -143 11 -59 38 -118 100 -213 110 -169 111
-180 11 -233 -86 -45 -109 -75 -110 -138 -1 -69 38 -131 122 -192 96 -71 128
-107 142 -157 13 -45 8 -154 -10 -244 -12 -59 -13 -177 -1 -184 5 -4 22 1 38
10 45 26 96 12 148 -41 55 -54 72 -106 59 -178 -5 -28 -8 -60 -6 -70 6 -32 61
-50 167 -54 194 -8 278 -34 283 -90 4 -36 -15 -54 -108 -100 -36 -19 -65 -43
-85 -71 -26 -38 -30 -53 -30 -109 0 -59 3 -67 28 -89 17 -14 41 -24 60 -24 18
0 38 -4 46 -9 16 -10 14 -14 -59 -106 -44 -55 -75 -142 -84 -238 -3 -32 -10
-67 -16 -77 -14 -27 -51 -34 -95 -20 -99 33 -150 1 -185 -111 -39 -131 -82
-153 -236 -121 -165 34 -176 24 -189 -168 -8 -118 -21 -158 -65 -202 -30 -30
-45 -38 -74 -38 -45 0 -96 21 -144 58 -99 78 -138 74 -230 -25 -198 -212 -238
-250 -294 -277 -72 -35 -114 -31 -103 11 12 48 62 111 223 276 34 36 62 71 62
77 0 7 -44 74 -97 149 -206 287 -230 333 -197 380 8 11 46 39 85 62 114 66
114 94 -1 219 -67 72 -100 127 -100 163 0 31 35 83 125 182 147 163 196 272
152 338 -16 25 -31 30 -118 42 -73 9 -115 64 -89 117 7 12 38 48 70 78 65 61
87 113 76 174 -11 60 -51 95 -120 106 -32 5 -64 14 -71 20 -17 14 -8 50 31
131 38 78 50 131 40 183 -14 72 -92 132 -187 143 -34 4 -53 12 -60 24 -15 28
-13 107 5 182 22 92 21 150 -2 171 -19 17 -46 21 -169 30 -136 10 -184 51
-229 193 -20 63 -37 97 -61 122 l-33 33 -99 -7 c-143 -10 -157 3 -211 190 -32
110 -50 145 -78 145 -18 0 -60 -30 -141 -102 -86 -77 -116 -93 -147 -79 -27
12 -72 78 -130 191 -75 146 -129 179 -196 122 -91 -78 -156 -101 -218 -76 -53
21 -71 59 -80 172 -13 150 -31 155 -214 68 -151 -72 -175 -66 -222 57 -61 160
-168 205 -282 120 -17 -13 -54 -57 -82 -97 -27 -41 -56 -76 -66 -80 -35 -13
-78 28 -239 234 -49 61 -91 107 -95 103 -4 -4 -31 -42 -61 -83 -89 -126 -117
-156 -171 -185 -58 -31 -117 -36 -249 -18 -77 11 -124 1 -140 -30 -7 -12 -16
-58 -20 -103 -12 -135 -56 -194 -171 -233 -168 -57 -190 -167 -62 -316 66 -78
69 -112 12 -193 -71 -103 -80 -123 -65 -147 7 -11 38 -32 68 -48 65 -33 108
-78 110 -115 1 -15 2 -36 3 -47 1 -11 -5 -47 -12 -80 -22 -98 -18 -146 13
-172 22 -19 38 -23 98 -23 156 -1 303 -47 342 -107 14 -21 18 -44 17 -87 l-3
-59 53 -51 c31 -30 91 -70 142 -96 92 -47 136 -87 136 -122 0 -12 -19 -62 -42
-112 -23 -50 -43 -111 -46 -138 -5 -48 -4 -49 49 -101 30 -28 74 -68 98 -87
38 -31 43 -39 38 -62 -6 -22 -28 -37 -123 -85 -64 -32 -136 -75 -159 -96 -53
-46 -95 -126 -95 -183 0 -62 -17 -142 -37 -169 -30 -41 -78 -58 -165 -57 l-79
1 -14 -33 c-15 -36 -22 -85 -30 -223 -3 -51 -14 -121 -26 -157 -16 -54 -28
-72 -64 -103 -98 -81 -81 -161 67 -318 65 -69 88 -104 88 -132 0 -38 -32 -46
-99 -23 -68 23 -107 44 -211 116 -181 125 -276 149 -449 113 -117 -24 -148
-24 -159 -1 -11 21 -9 36 19 134 39 140 21 153 -198 143 -212 -10 -208 -11
-240 21 -26 26 -26 26 -18 137 13 173 11 208 -13 228 -22 17 -70 14 -132 -9
-37 -13 -112 -15 -142 -3 -15 6 -35 22 -44 36 -28 43 -6 93 77 172 78 74 99
107 99 151 0 48 -50 83 -188 132 -136 48 -134 53 31 81 60 10 131 29 156 41
60 30 69 56 52 151 -19 101 -18 145 5 168 20 20 84 34 196 43 216 18 266 71
181 194 -21 30 -48 69 -60 86 -38 54 -39 78 -1 115 47 46 145 89 240 105 63
11 87 20 101 37 39 48 -7 112 -120 166 -99 47 -98 61 5 141 103 80 134 113
172 184 39 73 50 159 27 204 -26 51 -43 59 -127 59 -89 0 -105 9 -120 66 -13
45 7 151 45 249 63 160 51 172 -161 183 -150 8 -172 32 -183 208 -8 130 -20
166 -57 175 -41 10 -57 10 -134 -2 -154 -25 -201 2 -240 134 -25 88 -60 154
-92 177 -53 37 -150 10 -245 -67 -28 -24 -75 -62 -103 -85 -72 -60 -93 -57
-119 12 -12 31 -21 60 -21 66 0 24 -41 96 -69 123 -40 39 -118 46 -172 17z
m122 -83 c6 -118 20 -166 58 -202 88 -84 229 -63 366 55 86 75 100 82 123 70
23 -12 33 -36 67 -161 15 -52 35 -109 46 -126 34 -55 91 -66 204 -39 66 16
124 19 141 7 24 -16 35 -57 41 -150 6 -108 28 -173 64 -193 13 -6 62 -16 109
-20 95 -10 133 -30 138 -73 4 -29 -32 -99 -68 -131 -76 -68 -65 -178 26 -269
50 -50 104 -76 182 -87 35 -5 68 -12 73 -15 19 -11 7 -33 -48 -85 -122 -116
-164 -164 -188 -216 -23 -48 -25 -61 -19 -126 8 -86 -4 -116 -63 -166 -73 -62
-84 -74 -99 -109 -17 -42 -18 -97 -2 -172 22 -108 -9 -138 -172 -165 -104 -17
-134 -28 -167 -63 -24 -24 -25 -26 -27 -168 -1 -124 -14 -138 -136 -153 -79
-10 -112 -27 -140 -74 -47 -77 -7 -167 98 -219 58 -30 82 -51 82 -76 0 -5 -20
-39 -45 -75 -24 -36 -49 -84 -54 -107 -29 -130 68 -250 202 -250 50 0 105 -31
124 -70 6 -14 14 -65 17 -114 10 -144 40 -173 201 -201 92 -16 179 -51 209
-84 9 -10 21 -44 26 -75 23 -145 130 -187 290 -113 106 49 184 27 404 -111
210 -131 325 -174 367 -136 49 44 69 135 49 227 -14 71 -45 116 -95 143 -67
34 -67 54 -2 191 31 65 60 141 64 168 9 61 9 59 -1 118 -7 43 -4 53 18 87 27
42 79 80 166 124 82 42 120 74 140 118 15 34 16 47 6 101 -6 34 -11 68 -10 75
1 6 2 21 3 32 2 35 69 97 153 140 100 52 149 96 182 163 40 80 30 147 -31 198
-65 55 -80 119 -56 244 30 160 9 213 -118 290 -77 47 -145 122 -159 176 -23
83 -32 98 -83 133 -53 36 -88 49 -237 87 -67 18 -92 30 -119 56 -34 34 -34 34
-26 101 16 136 5 179 -56 218 -72 45 -83 86 -66 241 8 80 -12 162 -58 229 -57
83 -45 109 65 144 114 35 156 91 170 225 14 137 25 145 167 112 110 -26 199
-6 291 66 114 89 126 97 148 97 18 0 28 -12 48 -54 37 -79 70 -112 126 -131
113 -37 215 11 333 158 21 26 44 47 52 47 18 0 45 -52 74 -141 12 -36 34 -80
49 -98 23 -28 36 -34 78 -38 28 -3 85 2 128 11 147 30 171 19 185 -87 5 -38
17 -80 26 -93 50 -76 145 -83 283 -20 87 39 132 47 156 27 8 -7 32 -53 52
-102 58 -139 96 -161 250 -139 142 20 199 3 250 -77 40 -62 89 -91 181 -104
101 -14 157 -60 203 -168 40 -92 127 -151 223 -151 50 0 102 -23 117 -51 10
-17 9 -46 0 -128 -7 -59 -10 -123 -6 -143 9 -47 57 -88 129 -111 106 -34 121
-74 88 -242 -27 -138 -27 -150 4 -180 20 -21 34 -25 85 -25 59 0 100 -12 100
-29 0 -4 -24 -38 -54 -75 -85 -106 -108 -215 -65 -303 25 -52 46 -65 122 -74
32 -4 61 -10 64 -13 12 -12 -20 -64 -77 -126 -130 -141 -196 -254 -206 -359
-8 -74 17 -135 75 -182 55 -44 53 -71 -9 -116 -97 -70 -110 -83 -110 -116 0
-46 32 -108 168 -330 67 -109 122 -202 122 -206 0 -4 -57 -68 -127 -141 -210
-218 -301 -343 -278 -379 21 -34 164 -19 325 35 132 44 221 92 285 154 86 82
195 126 333 136 37 2 95 6 129 9 75 5 137 35 158 75 8 16 22 62 30 102 28 131
68 163 220 177 51 5 106 16 123 25 37 19 72 62 72 89 0 58 74 118 171 138 123
26 181 82 192 188 7 57 53 167 84 198 92 92 125 172 88 213 -19 21 -43 27
-144 35 -35 3 -67 8 -70 11 -6 6 11 22 126 121 103 89 138 192 90 264 -33 50
-85 71 -198 80 -57 4 -110 14 -129 24 -32 17 -32 17 -26 77 6 52 4 64 -18 103
-28 48 -78 91 -145 126 -58 30 -118 88 -126 122 -5 20 1 48 24 102 61 146 48
170 -206 383 -28 24 -56 56 -61 72 -12 34 -2 46 96 105 83 50 100 78 84 132
-6 21 -50 105 -96 186 -93 163 -114 213 -97 230 6 6 52 14 103 17 51 3 103 12
114 20 41 25 55 76 64 220 5 74 13 149 19 166 17 46 57 64 169 73 152 14 207
51 258 177 45 109 80 126 202 99 126 -28 228 -11 407 69 46 20 96 36 118 36
37 0 112 -31 132 -55 20 -25 128 -107 153 -116 42 -16 88 1 198 72 118 76 135
83 169 75 25 -6 47 -46 105 -188 59 -145 94 -156 248 -79 54 27 115 53 135 56
33 6 38 5 49 -20 10 -22 8 -50 -10 -164 -31 -183 -32 -199 -22 -226 15 -40 47
-48 200 -56 81 -3 157 -12 172 -19 43 -20 53 -59 40 -148 -17 -106 -15 -142 8
-179 22 -38 50 -53 145 -82 125 -39 140 -65 83 -141 -102 -134 -103 -167 -6
-282 90 -105 108 -137 108 -188 0 -44 -8 -63 -89 -214 -53 -100 -44 -124 74
-201 122 -79 122 -78 -85 -257 -82 -70 -104 -104 -94 -142 3 -13 38 -62 76
-108 111 -130 125 -178 70 -246 -15 -19 -35 -44 -45 -56 -10 -13 -21 -40 -24
-62 -4 -33 4 -56 56 -157 34 -66 61 -128 61 -138 0 -39 -31 -91 -88 -152 -113
-120 -116 -135 -35 -204 110 -93 124 -109 115 -132 -4 -12 -39 -54 -78 -94
-53 -54 -77 -89 -93 -131 -50 -135 -3 -266 96 -266 19 0 43 -5 54 -11 20 -10
20 -11 3 -37 -10 -15 -43 -49 -73 -77 -181 -164 -194 -181 -172 -224 6 -11 56
-56 110 -100 134 -109 138 -124 46 -180 -67 -40 -121 -98 -147 -158 -26 -59
-27 -141 -1 -184 32 -55 71 -71 196 -78 27 -2 20 -20 -20 -54 -144 -124 -181
-178 -190 -278 -8 -83 21 -140 93 -180 59 -34 85 -75 105 -169 15 -70 6 -212
-16 -268 -20 -49 -57 -82 -91 -82 -33 0 -95 -58 -129 -122 -44 -82 -87 -105
-164 -87 -25 6 -57 13 -70 15 -43 9 -128 -16 -187 -55 -33 -21 -73 -41 -91
-45 -37 -8 -83 12 -119 52 -37 42 -97 174 -143 317 -63 194 -128 325 -162 325
-73 0 -124 -893 -68 -1186 5 -28 19 -69 29 -90 11 -21 20 -52 20 -69 0 -38
-31 -106 -70 -155 -16 -20 -34 -49 -39 -63 -9 -22 -7 -29 15 -46 14 -11 49
-27 77 -37 133 -43 167 -81 147 -164 -9 -37 -9 -52 1 -68 16 -25 71 -42 140
-42 157 0 212 -69 204 -256 -3 -84 -25 -131 -66 -146 -35 -12 -54 -45 -64
-112 -4 -27 -14 -60 -23 -74 -18 -28 -68 -52 -107 -52 -60 0 -137 -61 -165
-131 -16 -42 -39 -69 -56 -69 -8 0 -31 23 -51 50 -59 80 -84 78 -199 -10 -67
-51 -87 -59 -100 -38 -4 7 -11 59 -15 116 -6 89 -11 108 -31 129 -21 23 -27
25 -83 17 -33 -4 -82 -8 -110 -8 l-50 -1 0 55 c0 65 -39 152 -110 248 -24 33
-52 78 -63 99 -70 138 -128 405 -157 718 -4 39 -8 81 -10 95 -2 14 -7 48 -10
75 -23 176 -75 384 -101 406 -36 30 -60 -41 -73 -216 -8 -101 -6 -740 3 -845
2 -25 7 -101 10 -170 4 -69 9 -143 11 -165 2 -22 6 -76 10 -120 3 -44 8 -96
10 -115 2 -19 7 -66 10 -105 13 -147 48 -362 76 -458 5 -21 26 -56 45 -76 65
-73 85 -151 70 -271 -11 -83 17 -96 152 -69 147 29 325 -61 388 -196 30 -64
30 -91 -2 -162 -29 -64 -35 -148 -20 -279 7 -60 6 -72 -8 -87 -10 -9 -26 -17
-36 -17 -29 0 -79 -60 -120 -145 -61 -127 -102 -159 -218 -174 -90 -11 -135
-32 -187 -85 -55 -57 -73 -53 -126 26 -62 91 -133 130 -261 143 -77 8 -115 36
-137 100 -28 85 -135 244 -297 440 -134 162 -228 255 -260 255 -29 0 -39 -71
-38 -285 1 -338 32 -432 189 -565 105 -89 160 -162 169 -223 13 -85 54 -138
166 -215 72 -49 77 -81 26 -151 -76 -103 -98 -203 -70 -319 25 -107 13 -154
-45 -165 -41 -8 -69 -64 -75 -151 -9 -115 -27 -127 -162 -106 -132 21 -147 7
-157 -136 -7 -90 -21 -131 -49 -139 -23 -8 -32 -5 -199 61 -75 30 -149 54
-165 54 -43 0 -91 -34 -109 -77 -23 -54 -53 -83 -88 -83 -41 0 -119 24 -285
87 -147 55 -288 94 -319 88 -10 -2 -24 -4 -30 -4 -24 -2 -13 -50 23 -96 56
-74 159 -168 367 -334 83 -67 127 -109 127 -121 0 -12 -19 -32 -53 -53 -63
-40 -91 -94 -102 -197 -12 -107 -43 -134 -171 -150 -118 -15 -174 -62 -208
-173 -20 -66 -42 -97 -70 -97 -12 0 -67 30 -122 66 -112 75 -188 114 -222 114
-63 0 -77 -34 -86 -212 -4 -64 -9 -124 -12 -132 -10 -26 -40 -18 -81 19 -83
77 -185 107 -274 81 -68 -19 -114 -63 -146 -136 -65 -149 -76 -155 -163 -90
-94 71 -154 95 -252 99 -110 5 -180 -35 -192 -109 -17 -107 -134 -82 -204 43
-17 30 -46 64 -64 75 -128 79 -342 61 -414 -33 -45 -60 -68 -56 -118 18 -61
92 -124 147 -169 147 -48 0 -134 66 -211 161 -66 84 -127 88 -288 21 -116 -49
-143 -55 -171 -41 -29 16 -32 21 -62 111 -42 124 -83 148 -197 114 -78 -24
-91 1 -58 114 23 78 4 160 -46 207 -49 45 -17 112 128 272 109 121 148 175
148 208 0 20 -5 23 -38 23 -52 0 -119 -21 -297 -92 -182 -73 -266 -99 -324
-99 -39 -1 -47 4 -90 49 -48 52 -92 72 -161 72 -79 0 -160 41 -160 80 0 44
-62 69 -204 80 -163 14 -182 33 -196 191 -13 161 -44 209 -134 209 -19 0 -46
4 -60 10 -31 11 -28 21 30 107 63 93 79 196 50 333 -14 65 -14 148 -1 170 4 6
17 15 30 20 39 15 75 75 116 192 57 163 95 196 239 205 243 15 332 122 222
266 -54 71 -80 160 -91 317 -10 143 -27 196 -65 206 -58 14 -138 -66 -288
-290 -56 -83 -117 -171 -137 -196 -54 -67 -131 -140 -150 -140 -9 0 -26 -8
-38 -18 -27 -22 -83 -111 -83 -133 0 -24 -73 -103 -123 -132 -101 -60 -259
-88 -317 -57 -14 7 -42 28 -63 46 -41 37 -79 43 -150 23 -72 -20 -96 7 -108
122 -9 97 -37 148 -80 149 -9 0 -23 8 -32 18 -21 23 -47 124 -47 184 0 97 -34
202 -79 242 -28 26 -26 53 7 107 78 123 287 249 412 249 51 0 98 18 111 42 8
15 6 43 -7 109 -17 83 -17 90 -1 124 9 20 31 44 48 53 140 77 151 108 117 337
-26 182 -21 262 22 323 41 58 50 102 72 342 20 220 17 1085 -4 1250 -9 69 -21
137 -27 153 -22 58 -56 23 -85 -88 -16 -64 -22 -126 -31 -300 -11 -210 -49
-385 -126 -578 -52 -130 -64 -162 -160 -447 -93 -273 -119 -330 -175 -387 -34
-33 -51 -43 -90 -48 -113 -15 -156 -50 -167 -135 -8 -66 -35 -84 -112 -76
-142 14 -304 79 -350 140 -27 35 -87 66 -130 66 -72 0 -111 52 -126 170 -12
96 -40 162 -80 191 -51 36 -41 66 50 157 87 86 105 127 83 186 -21 55 15 83
153 115 121 29 154 83 185 301 21 145 39 226 84 376 43 141 59 288 60 524 1
118 -2 244 -6 280 -9 83 -56 351 -62 358 -3 2 -10 -6 -15 -19 -31 -81 -167
-371 -197 -423 -59 -99 -127 -182 -169 -203 -11 -6 -37 -13 -58 -17 -57 -10
-114 -68 -153 -152 -18 -40 -37 -75 -43 -78 -14 -9 -44 11 -69 48 -71 104
-164 169 -265 186 -31 5 -66 14 -77 20 -29 15 -60 69 -60 103 0 64 -41 112
-100 119 -38 5 -36 38 5 93 87 113 93 161 31 243 -52 68 -72 110 -60 122 6 6
53 14 105 19 146 13 206 49 228 137 23 91 -12 172 -130 300 -84 92 -110 134
-102 166 3 10 40 47 83 83 82 67 108 111 95 157 -4 13 -22 53 -41 90 -50 98
-64 173 -58 298 14 272 11 278 -186 433 -65 51 -73 82 -25 106 101 51 139 99
149 190 12 102 -30 199 -130 296 -41 40 -74 80 -74 89 0 9 29 35 68 60 107 70
136 110 134 185 -2 47 -40 101 -138 197 -92 89 -98 111 -40 141 101 51 128
141 74 247 -11 21 -51 69 -89 106 -93 91 -94 111 -7 178 152 115 199 177 199
259 1 73 -24 118 -113 203 -105 103 -104 111 17 163 160 69 184 102 169 236
-21 187 -6 254 65 292 96 51 111 111 77 317 -14 87 -13 130 4 162 9 17 21 19
123 17 97 -2 117 1 147 18 58 35 72 71 81 212 9 168 15 173 107 109 83 -57
132 -75 186 -69 72 8 116 42 155 120 25 50 37 135 40 276 1 53 22 48 65 -17
74 -112 186 -169 299 -152 65 10 98 42 108 104 4 29 18 73 30 98 24 46 99 127
141 150 30 17 58 18 59 2z"/>
<path d="M17235 15574 c-370 -55 -641 -263 -762 -583 -89 -235 -104 -566 -38
-806 83 -297 260 -474 579 -580 281 -93 292 -107 273 -330 -22 -248 -99 -475
-222 -654 -70 -101 -111 -187 -128 -273 -25 -119 -107 -227 -304 -400 -177
-155 -198 -174 -315 -287 -169 -163 -237 -204 -371 -221 -92 -11 -200 -50
-298 -106 -98 -57 -249 -106 -440 -142 -166 -33 -159 -32 -454 -62 -110 -11
-217 -23 -237 -26 l-37 -6 -6 49 c-4 26 -8 58 -10 70 -2 13 -9 67 -15 120 -6
54 -13 109 -15 123 -3 14 -7 70 -11 125 -3 55 -7 106 -9 113 -8 23 7 42 32 42
14 0 93 -22 176 -50 162 -54 201 -60 215 -33 20 35 -18 122 -177 408 -69 125
-117 233 -141 320 -17 64 -18 84 -6 127 14 47 -10 95 -70 140 -30 22 -54 44
-54 49 0 11 -8 10 80 16 44 3 87 12 105 22 27 16 30 23 29 63 0 38 -7 55 -39
95 -22 26 -45 52 -52 56 -7 4 -20 21 -28 38 -15 28 -15 30 10 39 15 6 46 10
71 10 76 0 148 41 180 102 23 45 17 75 -24 121 -21 23 -45 54 -54 68 -31 49
-80 204 -118 374 -58 263 -111 379 -250 556 -63 80 -272 297 -375 390 -81 73
-237 192 -316 242 -159 99 -273 137 -403 136 -124 -1 -261 53 -601 236 -164
88 -298 142 -450 181 -98 25 -128 28 -265 28 -122 0 -168 -3 -215 -18 -154
-47 -271 -143 -340 -279 -52 -104 -56 -166 -22 -314 14 -59 28 -135 32 -168
11 -113 15 -126 52 -161 44 -43 69 -56 156 -83 195 -60 472 -252 704 -488 79
-81 98 -117 80 -154 -7 -12 -50 -55 -96 -94 -47 -39 -87 -77 -89 -83 -6 -20
39 -29 148 -31 124 -2 165 -8 181 -28 37 -43 -27 -219 -145 -398 -68 -104
-106 -154 -196 -254 -107 -120 -144 -191 -107 -204 19 -6 -13 -65 -79 -144
-31 -37 -144 -156 -251 -263 -180 -183 -243 -254 -243 -279 0 -21 39 -30 136
-32 54 -1 118 -6 142 -11 65 -14 68 -32 22 -185 -21 -71 -52 -213 -70 -314
-38 -227 -45 -251 -82 -286 -28 -27 -34 -28 -115 -26 -99 1 -178 15 -323 54
-155 41 -216 65 -440 166 -30 14 -130 58 -223 99 -242 107 -253 112 -349 159
-159 80 -258 151 -258 186 0 26 -81 92 -139 113 -64 23 -139 77 -172 125 -14
20 -43 79 -64 131 -38 94 -59 135 -140 280 -130 231 -189 383 -204 526 -15
136 -38 191 -125 298 -37 44 -56 76 -54 90 4 31 65 59 228 106 260 75 445 184
580 343 220 258 286 606 189 992 -117 461 -502 698 -1089 671 -74 -3 -151 -8
-170 -11 -128 -21 -166 -30 -258 -61 -337 -114 -572 -343 -780 -760 -193 -385
-298 -799 -329 -1294 -20 -313 0 -955 42 -1320 3 -25 10 -89 15 -142 23 -226
45 -433 55 -508 2 -19 9 -87 15 -150 6 -63 13 -128 15 -145 2 -16 6 -61 10
-100 3 -38 8 -88 10 -110 2 -22 7 -78 11 -125 3 -47 10 -123 14 -170 4 -47 7
-193 6 -325 -2 -213 -5 -247 -23 -303 -26 -78 -58 -120 -131 -174 -102 -76
-152 -138 -152 -192 1 -77 74 -166 179 -215 49 -23 69 -26 156 -26 87 0 107 4
155 27 138 66 249 215 328 440 46 129 77 248 126 488 60 290 67 322 71 318 6
-6 106 -402 125 -496 23 -107 56 -358 65 -487 4 -49 9 -101 11 -115 8 -53 18
-354 18 -540 -1 -335 -16 -529 -55 -741 -42 -228 -108 -362 -214 -432 -39 -26
-63 -31 -181 -41 -61 -5 -108 -27 -130 -62 -22 -33 -14 -134 14 -190 57 -113
197 -188 357 -193 130 -4 257 43 344 128 186 181 364 641 480 1241 43 223 57
312 96 625 38 305 69 495 88 535 40 83 75 -26 150 -465 14 -82 28 -166 31
-185 3 -19 14 -93 25 -165 49 -317 75 -532 86 -705 3 -52 8 -122 10 -155 5
-80 5 -513 0 -595 -13 -211 -18 -270 -36 -410 -62 -498 -182 -850 -343 -1004
-56 -53 -109 -75 -181 -76 -84 -1 -125 -18 -150 -60 -18 -31 -20 -52 -20 -200
0 -151 2 -168 22 -207 38 -69 99 -100 256 -128 155 -27 310 -1 412 69 111 76
186 170 285 361 140 268 208 338 347 355 93 12 188 38 263 74 119 56 129 37
131 -264 3 -368 23 -419 175 -435 131 -14 178 42 385 463 76 156 153 304 170
328 56 82 131 121 274 144 159 25 372 30 448 9 21 -6 50 -21 63 -34 25 -25 32
-69 14 -80 -20 -12 -94 -11 -168 1 -72 13 -147 18 -204 15 -36 -1 -83 -44
-116 -106 -33 -60 -93 -104 -153 -112 -84 -11 -123 -62 -132 -170 -9 -105 -63
-179 -148 -205 -62 -18 -133 -88 -174 -171 -64 -131 -71 -261 -19 -372 26 -57
28 -70 34 -245 6 -209 11 -226 82 -282 56 -43 73 -52 166 -89 166 -66 323 -81
405 -39 45 24 58 37 87 92 40 74 79 101 175 119 61 11 103 49 110 98 16 99 49
152 117 187 81 40 116 95 129 197 9 72 46 167 79 202 11 11 28 40 39 65 35 80
80 363 96 600 4 52 8 120 10 150 2 30 6 111 10 180 3 69 8 150 10 180 3 30 7
111 10 180 3 69 8 145 10 170 2 25 7 100 10 168 4 67 8 135 10 150 2 15 7 101
11 192 18 393 4 560 -46 560 -37 0 -92 -76 -120 -165 -31 -100 -108 -151 -212
-142 -33 3 -62 8 -65 10 -2 3 27 14 64 25 121 37 150 88 164 291 11 153 21
206 49 261 72 142 183 -51 264 -460 49 -246 65 -390 61 -575 -2 -148 -14 -201
-50 -235 -45 -43 -59 -115 -58 -305 0 -93 3 -192 7 -220 19 -170 26 -482 13
-650 -50 -666 -344 -1176 -811 -1405 -106 -52 -234 -93 -333 -107 -32 -4 -125
-8 -208 -7 -164 0 -252 17 -363 72 -66 32 -158 114 -202 180 -46 69 -39 104
48 250 83 138 101 187 83 231 -19 44 -75 63 -201 69 -198 8 -327 -28 -411
-119 -43 -45 -55 -66 -108 -181 -110 -241 -59 -489 147 -709 187 -200 303
-230 842 -224 179 2 350 6 380 9 56 6 113 12 210 22 56 6 178 29 332 62 55 12
85 15 81 8 -4 -6 -89 -94 -188 -196 -100 -102 -200 -205 -221 -230 -21 -24
-47 -54 -57 -65 -37 -40 -146 -211 -171 -268 -97 -221 -16 -347 216 -336 199
11 312 135 568 624 88 168 163 297 183 313 12 10 13 8 10 -15 -10 -53 -52
-199 -107 -364 -66 -201 -82 -259 -99 -375 -47 -325 64 -486 291 -419 119 36
187 148 226 370 9 50 27 200 41 334 25 242 55 413 80 461 l13 25 13 -30 c15
-37 17 -316 5 -530 -19 -321 -13 -488 20 -601 11 -40 30 -70 69 -112 209 -226
391 -59 400 368 2 103 -1 143 -19 295 -3 22 -14 96 -26 165 -26 156 -36 341
-21 395 12 47 44 85 69 85 36 0 46 -64 57 -345 11 -286 54 -493 136 -660 82
-167 194 -233 299 -174 76 43 112 152 106 319 -6 139 -35 274 -106 494 -60
185 -110 351 -110 367 0 41 63 -58 176 -276 248 -478 369 -636 539 -701 61
-23 270 -27 321 -6 46 19 67 64 72 153 10 167 -59 290 -293 525 -136 136 -372
360 -435 413 -32 27 -33 27 196 -5 104 -14 203 -27 219 -29 33 -4 180 -21 265
-30 30 -4 147 -8 260 -10 513 -9 841 90 977 293 92 138 130 395 84 574 -42
163 -124 274 -249 335 -72 36 -81 38 -166 37 -77 -1 -105 -6 -181 -34 -94 -35
-155 -81 -155 -117 0 -11 23 -63 50 -117 56 -110 61 -146 31 -225 -26 -69
-104 -183 -154 -227 -232 -200 -654 -138 -1042 154 -218 163 -412 394 -528
627 -132 265 -224 689 -220 1015 1 111 15 158 63 216 60 73 81 163 75 319 -4
111 -27 186 -67 228 -60 63 -80 155 -80 361 0 241 9 235 111 -74 164 -492 178
-613 102 -850 -77 -243 -76 -306 10 -581 28 -90 73 -254 100 -363 67 -268 123
-376 232 -450 74 -51 80 -56 115 -104 18 -25 34 -63 38 -88 11 -76 68 -124
148 -124 54 0 158 -37 211 -75 28 -19 66 -40 85 -45 142 -38 462 10 529 81 41
43 53 102 56 294 6 343 -34 523 -178 810 -76 149 -127 282 -127 327 0 54 -105
119 -257 157 -132 34 -241 48 -438 57 -77 3 -147 10 -155 14 -18 10 72 53 148
71 71 17 322 14 429 -5 254 -45 299 -82 368 -305 49 -156 113 -264 239 -401
91 -98 134 -172 142 -246 27 -225 308 -15 369 274 19 93 19 152 0 227 -15 59
-31 89 -129 247 -27 42 -46 82 -44 88 2 6 42 -9 97 -36 114 -55 213 -82 347
-93 158 -13 221 -57 305 -212 126 -231 186 -314 294 -406 74 -64 115 -92 180
-122 339 -159 612 11 642 400 7 97 -9 165 -48 209 -28 30 -33 32 -83 28 -44
-4 -66 -13 -132 -60 -43 -30 -89 -58 -101 -62 -33 -10 -77 18 -122 77 -68 89
-115 217 -165 447 -29 133 -30 142 -61 375 -3 29 -11 99 -19 180 -6 53 -17
223 -21 310 -5 99 -5 562 -1 610 2 22 7 92 10 155 4 63 9 129 11 145 2 17 7
62 10 100 3 39 7 86 10 105 2 19 6 67 10 105 3 39 8 84 10 100 3 17 14 107 25
200 12 94 23 181 25 195 3 14 9 57 15 97 35 248 86 517 110 578 10 25 13 27
21 14 7 -14 75 -465 94 -624 3 -27 8 -70 11 -95 2 -25 7 -61 9 -80 3 -19 7
-57 11 -85 3 -27 7 -61 9 -75 2 -14 6 -45 10 -70 46 -364 117 -705 185 -890
70 -189 192 -374 309 -466 126 -99 277 -150 421 -141 108 6 170 30 236 89 86
79 120 182 79 244 -23 35 -90 64 -149 64 -175 1 -299 131 -340 360 -14 79 -18
106 -31 215 -27 244 -27 948 0 1305 12 149 24 255 51 450 3 19 30 148 60 286
30 137 54 253 54 257 0 4 4 7 8 7 5 0 9 -6 9 -13 0 -7 7 -44 16 -82 9 -39 28
-122 43 -185 92 -402 130 -525 216 -698 113 -231 244 -321 411 -281 143 33
316 159 373 271 31 61 31 102 -1 133 -33 34 -91 33 -208 -5 -116 -37 -118 -37
-113 -2 3 15 7 90 11 167 3 77 8 160 10 185 2 25 7 101 10 170 3 69 8 150 10
180 4 53 9 144 20 348 3 53 8 131 10 172 2 41 7 127 10 190 3 63 8 149 10 190
2 41 7 143 10 225 3 83 8 177 10 210 27 426 27 1735 -1 2040 -35 391 -68 524
-190 769 -230 459 -620 771 -1079 862 -106 20 -327 25 -440 8z m-5078 -352
c136 -50 224 -117 271 -207 23 -44 26 -62 26 -152 1 -165 -10 -163 -155 28
-160 212 -187 225 -447 214 -180 -7 -254 1 -265 28 -12 30 51 71 158 103 131
38 282 33 412 -14z m557 -329 c64 -64 97 -120 119 -205 15 -59 15 -95 -4 -222
l-12 -79 -36 39 c-20 22 -64 70 -98 108 -100 112 -129 186 -71 186 13 0 34 7
46 16 28 19 28 56 2 131 -36 102 -27 106 54 26z m4665 -120 c14 -11 30 -34 35
-51 5 -17 16 -33 25 -35 24 -5 79 16 163 62 76 42 143 59 167 42 21 -14 15
-67 -12 -114 -69 -116 -313 -300 -452 -340 -103 -29 -156 22 -107 105 9 16 45
47 80 69 35 22 62 45 59 52 -2 6 -30 27 -63 47 -73 45 -105 94 -86 135 25 54
134 70 191 28z m-8579 -71 c40 -20 60 -53 60 -99 0 -49 28 -43 97 20 108 99
140 110 170 55 15 -28 18 -59 18 -198 0 -139 -3 -170 -18 -197 -29 -55 -48
-49 -185 62 -31 25 -54 35 -78 35 -51 0 -72 -12 -233 -134 -19 -15 -10 1 53
88 34 47 50 80 53 110 5 40 3 44 -42 81 -96 78 -94 156 5 188 30 10 66 7 100
-11z m3780 -397 c75 -67 200 -194 200 -204 0 -5 -7 -12 -16 -15 -18 -7 -145
116 -275 264 -41 47 -76 87 -79 90 -3 3 -14 16 -25 30 -18 22 42 -29 195 -165z
m5078 133 c97 -88 170 -198 131 -198 -16 0 -142 129 -172 177 -48 76 -30 84
41 21z m-4241 -107 c28 -42 57 -136 49 -158 -10 -24 -45 4 -83 67 -61 100 -28
183 34 91z m5357 -1783 c-5 -300 -58 -369 -479 -615 -453 -266 -1312 -681
-1993 -964 -425 -177 -1120 -424 -1139 -405 -12 12 144 91 362 183 72 30 204
87 294 125 686 291 1482 754 2231 1300 74 54 263 194 420 312 157 118 290 215
296 215 7 1 10 -47 8 -151z m-11068 -37 c73 -34 242 -148 634 -427 1113 -791
1806 -1178 2675 -1491 331 -119 482 -191 374 -177 -498 62 -2670 1027 -3449
1532 -134 87 -245 176 -284 226 -55 73 -70 122 -71 232 0 144 13 156 121 105z
m7269 -1973 c31 -14 32 -34 3 -42 -35 -9 -141 -7 -158 4 -18 11 -11 18 37 35
47 17 85 18 118 3z m58 -1570 c46 -66 74 -115 202 -363 43 -82 79 -151 80
-153 1 -2 42 69 90 157 94 171 137 232 153 216 5 -5 13 -32 16 -60 12 -101 19
-139 36 -199 11 -39 14 -69 9 -83 -10 -27 -51 -49 -109 -57 -132 -20 -199 -47
-249 -100 -14 -14 -30 -26 -36 -26 -15 0 -59 48 -78 86 -41 82 -142 374 -167
484 -24 105 -26 115 -22 138 6 37 29 25 75 -40z m-3642 30 c8 -75 0 -138 -37
-287 -55 -222 -175 -481 -267 -578 -47 -50 -56 -46 -72 33 -9 46 -69 101 -154
142 -87 42 -106 72 -95 150 5 37 84 314 144 502 7 21 9 18 10 -20 12 -310 21
-368 72 -425 33 -38 54 -43 97 -21 67 35 115 115 186 308 25 66 56 140 70 164
26 43 44 56 46 32z m2570 -435 c7 -40 12 -133 11 -223 -2 -221 -17 -258 -74
-173 -57 84 -89 65 -153 -88 -60 -145 -97 -154 -68 -18 40 197 224 598 262
574 5 -2 14 -35 22 -72z m-3566 8 c25 -49 38 -167 39 -341 2 -310 -36 -566
-78 -531 -18 15 -35 85 -44 179 -12 126 -8 530 6 605 22 117 47 146 77 88z
m5658 -266 c7 -199 17 -290 43 -390 33 -121 18 -149 -118 -218 -114 -58 -251
-159 -385 -283 -143 -132 -171 -156 -176 -147 -16 26 -171 413 -197 492 -34
99 -42 189 -21 215 18 22 78 31 97 15 11 -9 14 -21 9 -43 -12 -52 -5 -115 22
-200 46 -148 132 -306 167 -306 18 0 116 72 229 168 235 198 323 412 198 477
-40 20 -45 44 -27 115 13 50 143 307 151 298 1 -2 5 -88 8 -193z m-1899 -297
c9 -35 7 -129 -4 -186 -5 -28 -10 -81 -11 -118 -3 -105 21 -116 171 -80 88 21
186 21 230 -2 102 -51 -20 -105 -220 -98 -119 5 -193 26 -217 62 -39 61 -53
267 -24 363 22 73 62 105 75 59z m-2949 -22 c60 -25 64 -55 23 -186 -26 -83
-134 -308 -191 -397 -52 -80 -99 -133 -120 -133 -45 0 -19 119 44 195 105 129
130 206 115 357 -7 74 -6 104 4 128 20 48 64 61 125 36z m428 -7 c15 -11 31
-38 37 -60 26 -95 -19 -239 -163 -521 -105 -207 -162 -353 -170 -443 -9 -91
-28 -136 -85 -195 -72 -75 -113 -139 -193 -308 -74 -155 -136 -253 -174 -278
-37 -24 -73 -11 -91 33 -32 75 13 182 116 280 39 37 80 82 91 100 29 46 22
100 -14 127 -25 18 -42 21 -130 20 -124 0 -203 -21 -404 -104 -234 -97 -296
-108 -309 -55 -19 75 56 155 177 189 76 22 101 25 255 35 136 9 177 22 191 57
17 45 -49 124 -178 212 -93 62 -196 162 -205 199 -9 34 13 75 47 87 60 21 180
-37 236 -114 105 -144 172 -189 292 -198 172 -12 228 57 386 473 42 110 100
251 130 313 85 178 103 195 158 151z m3250 -102 c60 -67 126 -190 221 -416
108 -254 211 -421 260 -421 43 0 165 83 296 200 86 77 126 105 186 132 52 22
84 17 84 -15 0 -53 -47 -109 -162 -194 -108 -79 -174 -152 -189 -206 -19 -70
-44 -110 -105 -165 -33 -30 -73 -67 -90 -82 -17 -16 -34 -38 -36 -48 -8 -29
15 -84 71 -176 60 -98 97 -177 106 -227 6 -32 3 -39 -25 -62 -45 -38 -76 -44
-108 -20 -47 35 -70 92 -122 308 -41 168 -57 215 -77 236 -41 44 -156 79 -305
95 -143 15 -289 68 -321 118 -23 35 -22 73 3 86 38 20 87 8 382 -96 65 -23 82
-25 103 -16 71 32 50 161 -56 361 -184 343 -208 398 -216 506 -7 90 14 150 49
140 13 -4 36 -21 51 -38z m-2747 -273 c28 -8 59 -23 69 -34 17 -19 17 -20 -11
-31 -51 -19 -234 -21 -288 -3 -52 18 -67 38 -45 59 35 34 174 38 275 9z m2570
-244 c31 -60 31 -115 2 -134 -13 -8 -57 -17 -98 -21 -173 -13 -198 -17 -257
-37 -35 -12 -78 -34 -97 -49 -45 -38 -109 -163 -142 -282 -17 -61 -31 -94 -37
-88 -6 6 -8 56 -5 118 6 136 37 218 110 298 66 73 129 102 247 115 113 13 185
46 209 98 21 43 40 38 68 -18z m-2892 -14 c29 -39 96 -66 161 -66 52 0 136
-22 170 -44 23 -15 25 -20 14 -31 -29 -26 -89 -37 -239 -41 -165 -4 -232 4
-258 30 -14 14 -14 20 8 66 24 52 84 120 105 120 7 0 24 -15 39 -34z m4384
-248 c10 -13 15 -39 13 -71 -3 -43 -173 -81 -261 -57 l-45 12 33 28 c89 74
232 122 260 88z m-4323 -88 c14 -15 19 -36 19 -77 0 -49 -4 -59 -30 -83 -41
-36 -128 -53 -243 -48 -49 2 -93 7 -97 11 -27 26 247 217 312 217 11 0 29 -9
39 -20z m4269 -224 c110 -13 160 -57 149 -127 -8 -51 -20 -67 -58 -78 -76 -21
-164 8 -525 170 l-75 34 100 5 c134 7 336 5 409 -4z m-2149 -312 c8 -4 30 -27
47 -51 18 -27 45 -51 67 -60 46 -20 137 -19 224 1 93 22 159 21 181 -2 9 -10
19 -39 22 -63 11 -79 62 -126 166 -153 80 -21 128 -48 186 -106 96 -96 174
-244 212 -404 51 -214 17 -382 -101 -505 -109 -114 -219 -121 -219 -15 0 64
-46 77 -205 59 -90 -10 -103 2 -116 106 -13 102 -56 159 -120 159 -11 0 -30 5
-42 12 -49 25 -69 68 -82 169 -9 69 -54 132 -121 170 -71 41 -91 78 -70 137
25 71 11 142 -68 328 -30 71 -40 146 -25 192 11 32 28 39 64 26z m-1636 -86
c76 -14 77 -29 11 -118 -63 -85 -111 -230 -125 -385 -13 -133 -45 -245 -104
-365 -71 -142 -183 -270 -274 -314 -61 -29 -82 -32 -158 -22 -101 14 -122 -8
-132 -135 -7 -88 -31 -156 -57 -164 -30 -9 -98 25 -134 67 -158 184 -242 647
-146 803 10 16 34 39 52 49 18 10 44 28 57 40 33 30 71 114 71 160 0 52 34
120 66 135 14 6 54 15 88 20 100 14 162 54 200 128 26 52 99 87 218 103 79 10
307 10 367 -2z"/>
</g>
</svg>
